<svg xmlns="http://www.w3.org/2000/svg" fill="none" viewBox="0 0 400 400"><path fill="#4263EB" d="M83.752 116.706c-12.256 32.648-1.672 76.72 17.264 111.2 48.8 89.52 167.552 38.904 165.504-1.752 2.784-38.784-32.096-50.304-43.928-72.048C156.336 31.37 93.6 89.178 83.752 116.706Z"/><path fill="#fff" d="M83.752 116.706c-12.256 32.648-1.672 76.72 17.264 111.2 48.8 89.52 167.552 38.904 165.504-1.752 2.784-38.784-32.096-50.304-43.928-72.048C156.336 31.37 93.6 89.178 83.752 116.706Z" opacity=".9"/><path fill="#4263EB" d="M118.144 230.11h-48.68v-21.976l48.68-57.872h23.296v59.12h12.072v20.728H141.44v17.984h-23.296V230.11Zm0-20.728V179.11l-25.728 30.272h25.728ZM161.84 199.606c0-18.288 3.291-31.088 9.872-38.4 6.581-7.312 16.611-10.965 30.088-10.96 6.469 0 11.784.8 15.944 2.4a29.448 29.448 0 0 1 10.168 6.232 33.27 33.27 0 0 1 6.2 8.072 41.942 41.942 0 0 1 3.64 9.872 92.301 92.301 0 0 1 2.688 22.4c0 17.451-2.952 30.221-8.856 38.312-5.904 8.091-16.072 12.139-30.504 12.144-8.096 0-14.637-1.291-19.624-3.872a31.799 31.799 0 0 1-12.264-11.352c-2.32-3.541-4.125-8.387-5.416-14.536a99.435 99.435 0 0 1-1.936-20.312Zm26.512.064c0 12.267 1.08 20.632 3.24 25.096 2.16 4.464 5.299 6.707 9.416 6.728a9.865 9.865 0 0 0 7.056-2.856c1.995-1.904 3.461-4.912 4.4-9.024.939-4.112 1.408-10.512 1.408-19.2 0-12.768-1.083-21.352-3.248-25.752-2.165-4.4-5.413-6.597-9.744-6.592-4.416 0-7.616 2.243-9.6 6.728-1.984 4.485-2.96 12.776-2.928 24.872ZM297.392 230.11h-48.68v-21.976l48.68-57.872h23.296v59.12H332.8v20.728h-12.112v17.984h-23.296V230.11Zm0-20.728V179.11l-25.72 30.272h25.72Z"/><g fill="#4263EB" opacity=".3"><path d="M160.8 116.496a1.494 1.494 0 0 1-1.791 1.467 1.494 1.494 0 0 1-.53-2.715c.247-.163.537-.25.833-.248a1.492 1.492 0 0 1 1.377.924c.074.182.112.376.111.572ZM58.376 173.96a1.056 1.056 0 1 0 0-2.112 1.056 1.056 0 0 0 0 2.112ZM232.84 328.176a1.512 1.512 0 1 0 0-3.024 1.512 1.512 0 0 0 0 3.024ZM269.2 266.655a1.056 1.056 0 1 0 0-2.113 1.056 1.056 0 0 0 0 2.113ZM339.336 76.497a1.056 1.056 0 1 1-2.113 0 1.056 1.056 0 0 1 2.113 0ZM138.2 55.2a1.056 1.056 0 1 1-1.056-1.056A1.063 1.063 0 0 1 138.2 55.2ZM222.16 110.608a1.056 1.056 0 1 0 0-2.113 1.056 1.056 0 0 0 0 2.113Z"/></g><path fill="#4263EB" d="M112.984 110.615c9.68 0 17.528-7.848 17.528-17.528s-7.848-17.528-17.528-17.528c-9.681 0-17.528 7.847-17.528 17.528 0 9.68 7.847 17.528 17.528 17.528Z"/><path fill="#fff" d="M112.984 110.615c9.68 0 17.528-7.848 17.528-17.528s-7.848-17.528-17.528-17.528c-9.681 0-17.528 7.847-17.528 17.528 0 9.68 7.847 17.528 17.528 17.528Z" opacity=".7"/><path fill="#4263EB" d="M106.944 79.863A17.473 17.473 0 0 0 100 81.28a17.536 17.536 0 0 0 19.896 27.912 17.535 17.535 0 0 0-12.984-29.32l.032-.008Z" opacity=".2"/><path fill="#4263EB" d="M105.2 84.498a1.599 1.599 0 0 1-2.731 1.132 1.593 1.593 0 0 1-.347-1.744 1.6 1.6 0 0 1 3.078.612ZM124.048 82.897a1.599 1.599 0 1 1-3.198 0 1.599 1.599 0 0 1 3.198 0ZM120.848 94.32a2.626 2.626 0 0 1-3.136 2.573 2.623 2.623 0 1 1 3.136-2.574ZM112.512 101.801a3.507 3.507 0 0 1-4.188 3.437 3.504 3.504 0 1 1 4.188-3.437Z" opacity=".2"/><path fill="#4263EB" d="M320.72 304.517c1.951-8.269-3.17-16.555-11.439-18.506-8.269-1.952-16.555 3.169-18.507 11.438-1.951 8.269 3.17 16.555 11.439 18.507 8.269 1.951 16.555-3.17 18.507-11.439Z"/><path fill="#fff" d="M320.72 304.517c1.951-8.269-3.17-16.555-11.439-18.506-8.269-1.952-16.555 3.169-18.507 11.438-1.951 8.269 3.17 16.555 11.439 18.507 8.269 1.951 16.555-3.17 18.507-11.439Z" opacity=".3"/><path fill="#4263EB" d="M315.464 289.074a15.377 15.377 0 0 0-14.136 26.656c1.434.435 2.925.657 4.424.656a15.387 15.387 0 0 0 14.812-19.529 15.389 15.389 0 0 0-5.1-7.783Z" opacity=".4"/><path fill="#4263EB" d="M291.064 305.599c-16.424 7.728-4.176 13.688 18.968 5.368 21.432-7.704 29.6-17.416 10.4-14.4 1.032 4.04-25.808 14.496-29.368 9.032Z"/><path fill="#101113" d="M315.28 150.262c-21.512 14.536-49.36 33.736-57.048 79.848h-1.64c7.48-45.6 34.312-65.256 55.832-79.848h2.856Z" opacity=".2"/><path fill="#4263EB" d="M204 294.615c-13.6 0-27.048-6.136-33.6-16.152-4.04-6.192-8.736-19.16 5.248-36.464l1.24 1.008c-9.888 12.24-11.712 24.52-5.144 34.584 8 12.24 26.872 18.4 42.984 14.016 16.504-4.488 26.52-18.84 27.488-39.376 3.304-70.248 40.624-91.888 67.872-107.688 16.936-9.816 29.168-16.904 26.48-31.872-.376-2.072-1.2-3.504-2.536-4.384-3.48-2.296-10.28-.704-18.152 1.128-15.448 3.6-36.6 8.528-49.2-12.904l1.384-.8c12 20.424 31.656 15.84 47.456 12.16 8.232-1.912 15.336-3.568 19.392-.904 1.72 1.128 2.776 2.912 3.2 5.44 2.888 16.064-10.4 23.776-27.24 33.536-26.936 15.616-63.816 37-67.08 106.4-1.008 21.28-11.456 36.168-28.672 40.848a42.29 42.29 0 0 1-11.12 1.424Z"/><path fill="#fff" d="M204 294.615c-13.6 0-27.048-6.136-33.6-16.152-4.04-6.192-8.736-19.16 5.248-36.464l1.24 1.008c-9.888 12.24-11.712 24.52-5.144 34.584 8 12.24 26.872 18.4 42.984 14.016 16.504-4.488 26.52-18.84 27.488-39.376 3.304-70.248 40.624-91.888 67.872-107.688 16.936-9.816 29.168-16.904 26.48-31.872-.376-2.072-1.2-3.504-2.536-4.384-3.48-2.296-10.28-.704-18.152 1.128-15.448 3.6-36.6 8.528-49.2-12.904l1.384-.8c12 20.424 31.656 15.84 47.456 12.16 8.232-1.912 15.336-3.568 19.392-.904 1.72 1.128 2.776 2.912 3.2 5.44 2.888 16.064-10.4 23.776-27.24 33.536-26.936 15.616-63.816 37-67.08 106.4-1.008 21.28-11.456 36.168-28.672 40.848a42.29 42.29 0 0 1-11.12 1.424Z" opacity=".2"/><path fill="#4263EB" d="M250.208 77.598c3.686.02 7.348.595 10.864 1.704 0 0 8.8 15.016 9.84 18.456-.368 3.392-6.088 8.952-6.088 8.952l-14.616-29.112Z"/><path fill="#fff" d="M250.208 77.598c3.686.02 7.348.595 10.864 1.704 0 0 8.8 15.016 9.84 18.456-.368 3.392-6.088 8.952-6.088 8.952l-14.616-29.112Z" opacity=".3"/><path fill="#4263EB" d="M276.272 150.502a113.185 113.185 0 0 1-9.248-13.104 66.784 66.784 0 0 1-1.912-3.536 68.81 68.81 0 0 1-.992-2.048 8.607 8.607 0 0 1-.968-2.152c-.96-10.136 2.512-17.6-.8-25.736l-13.184 5.152s1.12 14.496 3.68 23.2c1.6 5.384 5.184 10.04 8.648 14.352 1.08 1.344 2.12 2.728 3.2 4.08 1.08 1.352 2.168 2.448 3.2 3.72 1.56 1.928 2.072 3.776.896 6.048l-.2.36c-.336.592 1.232 1.264 2.224 0 1.6-2.064 1.376-1.936 2.768-3.696a115.177 115.177 0 0 1 2.656-3.2 2.698 2.698 0 0 0 .032-3.44Z"/><path fill="#fff" d="M276.272 150.502a113.185 113.185 0 0 1-9.248-13.104 66.784 66.784 0 0 1-1.912-3.536 68.81 68.81 0 0 1-.992-2.048 8.607 8.607 0 0 1-.968-2.152c-.96-10.136 2.512-17.6-.8-25.736l-13.184 5.152s1.12 14.496 3.68 23.2c1.6 5.384 5.184 10.04 8.648 14.352 1.08 1.344 2.12 2.728 3.2 4.08 1.08 1.352 2.168 2.448 3.2 3.72 1.56 1.928 2.072 3.776.896 6.048l-.2.36c-.336.592 1.232 1.264 2.224 0 1.6-2.064 1.376-1.936 2.768-3.696a115.177 115.177 0 0 1 2.656-3.2 2.698 2.698 0 0 0 .032-3.44Z" opacity=".7"/><path fill="#4263EB" d="M273.048 146.336a43.721 43.721 0 0 1-6.928 6.016c.344.384.68.8 1.024 1.168a35.112 35.112 0 0 0 6.8-6.008l-.896-1.176ZM276.272 150.503l-.096-.112a4.14 4.14 0 0 0-1.016 2.536 4.009 4.009 0 0 0 .304 1.88l.76-.904a2.698 2.698 0 0 0 .048-3.4Z" opacity=".3"/><path fill="#4263EB" d="M247.072 87.2a28.307 28.307 0 0 1-5.096 5.751 18.632 18.632 0 0 1-3.536 2.4c-.666.341-1.356.633-2.064.872l-.544.176-.176.048-.376.104a4.772 4.772 0 0 1-.704.112 6.04 6.04 0 0 1-2.008-.184 9.793 9.793 0 0 1-2.352-1.016 20.133 20.133 0 0 1-1.72-1.128c-1-.744-1.957-1.545-2.864-2.4a42.506 42.506 0 0 1-4.8-5.392 2.01 2.01 0 0 1 2.68-2.896h.064c1.888 1.2 3.792 2.464 5.648 3.592.944.552 1.856 1.112 2.76 1.544.413.216.837.409 1.272.576.271.12.561.19.856.208.048 0 0-.056-.296-.048a2.335 2.335 0 0 0-.28 0l-.176.04.264-.136c.355-.191.7-.402 1.032-.632a14.722 14.722 0 0 0 2-1.696 50.793 50.793 0 0 0 3.92-4.632 4.002 4.002 0 0 1 6.908 1.898c.191.979.01 1.994-.508 2.846l.096-.008Z"/><path fill="#fff" d="M247.072 87.2a28.307 28.307 0 0 1-5.096 5.751 18.632 18.632 0 0 1-3.536 2.4c-.666.341-1.356.633-2.064.872l-.544.176-.176.048-.376.104a4.772 4.772 0 0 1-.704.112 6.04 6.04 0 0 1-2.008-.184 9.793 9.793 0 0 1-2.352-1.016 20.133 20.133 0 0 1-1.72-1.128c-1-.744-1.957-1.545-2.864-2.4a42.506 42.506 0 0 1-4.8-5.392 2.01 2.01 0 0 1 2.68-2.896h.064c1.888 1.2 3.792 2.464 5.648 3.592.944.552 1.856 1.112 2.76 1.544.413.216.837.409 1.272.576.271.12.561.19.856.208.048 0 0-.056-.296-.048a2.335 2.335 0 0 0-.28 0l-.176.04.264-.136c.355-.191.7-.402 1.032-.632a14.722 14.722 0 0 0 2-1.696 50.793 50.793 0 0 0 3.92-4.632 4.002 4.002 0 0 1 6.908 1.898c.191.979.01 1.994-.508 2.846l.096-.008Z" opacity=".7"/><path fill="#4263EB" d="m217.832 81.935.936 1.6s.712 2.096 2.144 2.48l3.888-1.256-.2-.328c-.496-.752-.44-2.216-.272-3.432.168-1.216-.456-1.256-.92-.952a3.05 3.05 0 0 0-.672 1.32 6.212 6.212 0 0 0-.632-.744l-1.184-1.184a1.375 1.375 0 0 0-1.872-.048l-.96.856a1.37 1.37 0 0 0-.256 1.688Z"/><path fill="#fff" d="m217.832 81.935.936 1.6s.712 2.096 2.144 2.48l3.888-1.256-.2-.328c-.496-.752-.44-2.216-.272-3.432.168-1.216-.456-1.256-.92-.952a3.05 3.05 0 0 0-.672 1.32 6.212 6.212 0 0 0-.632-.744l-1.184-1.184a1.375 1.375 0 0 0-1.872-.048l-.96.856a1.37 1.37 0 0 0-.256 1.688Z" opacity=".7"/><path fill="#4263EB" d="M254.136 76.175a47.728 47.728 0 0 0-12.272 5.176 3.454 3.454 0 0 0-1.552 3.624c1.544 7.552 5.056 17.664 8.848 24.104l17.688-7.32c.12-3.12-4.176-13.216-8.552-22.976-.784-1.752-2.296-3.056-4.16-2.608Z"/><path fill="#fff" d="M254.136 76.175a47.728 47.728 0 0 0-12.272 5.176 3.454 3.454 0 0 0-1.552 3.624c1.544 7.552 5.056 17.664 8.848 24.104l17.688-7.32c.12-3.12-4.176-13.216-8.552-22.976-.784-1.752-2.296-3.056-4.16-2.608Z" opacity=".8"/><path fill="#4263EB" d="m261.04 84.965-3.512-1.176c.8 2.056 3.624 4.656 5.6 6.184-.64-1.6-1.352-3.28-2.088-5.008Z" opacity=".3"/><path fill="#4263EB" d="M252.976 68.255c-1.464-2.784-4.624-4.184-8.416-3.872-3.2.272-6.032 3.536-5.696 5.296.336 1.76 3.024 2.512 3.536 3.12l-2.216 1.6a2.405 2.405 0 0 0-.912 2.573c.085.312.232.605.432.859.936 1.184 2.168 2.4 2.88 3.296 6.128-.16 10.664-2.496 12.304-4.744-.616-2.848-.488-5.36-1.912-8.128Z"/><path fill="#fff" d="M252.976 68.255c-1.464-2.784-4.624-4.184-8.416-3.872-3.2.272-6.032 3.536-5.696 5.296.336 1.76 3.024 2.512 3.536 3.12l-2.216 1.6a2.405 2.405 0 0 0-.912 2.573c.085.312.232.605.432.859.936 1.184 2.168 2.4 2.88 3.296 6.128-.16 10.664-2.496 12.304-4.744-.616-2.848-.488-5.36-1.912-8.128Z" opacity=".8"/><path fill="#25262B" d="M249.968 69.983a6.056 6.056 0 1 1-7.848-3.44 6.066 6.066 0 0 1 7.848 3.44Z"/><path fill="#4263EB" d="M301.912 142.078c-.088-2.632-.208-2.4-.28-4.616-.048-1.36-.056-2.872-.064-4.176a2.689 2.689 0 0 0-2.16-2.624c-1.056-.216-2.12-.416-3.2-.64a59.04 59.04 0 0 1-4.104-1.008 47.523 47.523 0 0 1-3.128-1.016c-1.032-.376-2.192-.8-3.264-1.296a79.015 79.015 0 0 1-3.744-1.712 164.059 164.059 0 0 1-4.12-2.04c-5.264-8.712-5.376-14.456-11.024-21.192l-12.128 5.488s8.912 15.808 14.976 22.512c3.496 3.856 8.976 5.6 13.864 6.864 3.528.904 7.104 1.6 10.68 2.264 1.392.256 2.904.352 4.104 1.184a4.59 4.59 0 0 1 1.712 2.76c.053.224.101.448.144.672.152.672 1.792.16 1.736-1.424Z"/><path fill="#fff" d="M301.912 142.078c-.088-2.632-.208-2.4-.28-4.616-.048-1.36-.056-2.872-.064-4.176a2.689 2.689 0 0 0-2.16-2.624c-1.056-.216-2.12-.416-3.2-.64a59.04 59.04 0 0 1-4.104-1.008 47.523 47.523 0 0 1-3.128-1.016c-1.032-.376-2.192-.8-3.264-1.296a79.015 79.015 0 0 1-3.744-1.712 164.059 164.059 0 0 1-4.12-2.04c-5.264-8.712-5.376-14.456-11.024-21.192l-12.128 5.488s8.912 15.808 14.976 22.512c3.496 3.856 8.976 5.6 13.864 6.864 3.528.904 7.104 1.6 10.68 2.264 1.392.256 2.904.352 4.104 1.184a4.59 4.59 0 0 1 1.712 2.76c.053.224.101.448.144.672.152.672 1.792.16 1.736-1.424Z" opacity=".8"/><path fill="#4263EB" d="M295.76 129.918c-.48-.104-.96-.208-1.448-.328.04 2.768-1.256 7.536-1.728 8.984l1.52.288a30.507 30.507 0 0 0 1.656-8.944ZM301.6 133.288a2.688 2.688 0 0 0-2.152-2.624l-.8-.152a3.664 3.664 0 0 0 1.304 2.32 4.079 4.079 0 0 0 1.6.912c.048-.144.048-.304.048-.456Z" opacity=".3"/><path fill="#fff" d="M248.84 70.03c.32 1.217-1.04 2.489-2.12 1.44a24.657 24.657 0 0 0-3.296-2.951c-1.112-.696.368-1.912 2.12-1.44a4.756 4.756 0 0 1 3.296 2.952Z"/><path fill="#4263EB" d="M248.928 108.688c-.56.208.464 1.168.464 1.168s11.2-3.832 18-7.776a1.502 1.502 0 0 0-.544-1.264 172.658 172.658 0 0 1-17.92 7.872Z"/><path fill="#fff" d="M248.928 108.688c-.56.208.464 1.168.464 1.168s11.2-3.832 18-7.776a1.502 1.502 0 0 0-.544-1.264 172.658 172.658 0 0 1-17.92 7.872Z" opacity=".5"/><path fill="#4263EB" d="M257.168 75.646a88.353 88.353 0 0 1 6.4 3.6 72.926 72.926 0 0 1 3.072 2.04 53.932 53.932 0 0 1 3.04 2.288l.376.312.472.432c.281.252.548.52.8.8.256.28.472.552.68.8.208.248.432.544.616.8a35.272 35.272 0 0 1 2.064 3.2 47.209 47.209 0 0 1 3.2 6.68 2.013 2.013 0 0 1-.817 2.422 2.017 2.017 0 0 1-2.535-.326l-.04-.048c-1.6-1.704-3.144-3.496-4.696-5.168-1.552-1.672-3.128-3.368-4.432-4.112-1.816-1.128-3.84-2.256-5.848-3.36l-6.048-3.36a4 4 0 0 1 .695-7.36 4.002 4.002 0 0 1 3.049.288l-.048.072Z"/><path fill="#fff" d="M257.168 75.646a88.353 88.353 0 0 1 6.4 3.6 72.926 72.926 0 0 1 3.072 2.04 53.932 53.932 0 0 1 3.04 2.288l.376.312.472.432c.281.252.548.52.8.8.256.28.472.552.68.8.208.248.432.544.616.8a35.272 35.272 0 0 1 2.064 3.2 47.209 47.209 0 0 1 3.2 6.68 2.013 2.013 0 0 1-.817 2.422 2.017 2.017 0 0 1-2.535-.326l-.04-.048c-1.6-1.704-3.144-3.496-4.696-5.168-1.552-1.672-3.128-3.368-4.432-4.112-1.816-1.128-3.84-2.256-5.848-3.36l-6.048-3.36a4 4 0 0 1 .695-7.36 4.002 4.002 0 0 1 3.049.288l-.048.072Z" opacity=".8"/><path fill="#4263EB" d="m279.784 100.59-.68-1.704s-.376-2.176-1.728-2.784l-4 .632.136.352c.368.8.088 2.264-.272 3.432-.36 1.168.248 1.32.76 1.088.288-.128.568-.648.872-1.2.149.278.317.545.504.8l.984 1.352a1.374 1.374 0 0 0 1.84.352l1.088-.696a1.365 1.365 0 0 0 .496-1.624Z"/><path fill="#fff" d="m279.784 100.59-.68-1.704s-.376-2.176-1.728-2.784l-4 .632.136.352c.368.8.088 2.264-.272 3.432-.36 1.168.248 1.32.76 1.088.288-.128.568-.648.872-1.2.149.278.317.545.504.8l.984 1.352a1.374 1.374 0 0 0 1.84.352l1.088-.696a1.365 1.365 0 0 0 .496-1.624Z" opacity=".8"/><path fill="#4263EB" d="m253.792 84.848-.976.08-5.992 14.464c.327.023.657-.004.976-.08 0 0 7.808-2.912 10.168-4-1.584-3.272-4.176-10.464-4.176-10.464Z" opacity=".3"/><path fill="#fff" d="M242.856 88.638a34.732 34.732 0 0 0 4 10.752c2.928-1.008 7.808-2.912 10.176-4a108.246 108.246 0 0 1-4.232-10.464c-2.504.168-8 2.272-9.944 3.712Z"/><path fill="#4263EB" d="M248.8 91.769A2.062 2.062 0 0 1 245.856 93a2.06 2.06 0 0 1-.633-3.128 2.064 2.064 0 0 1 3.577 1.895Z" opacity=".3"/><path fill="#4263EB" d="M250.328 89.014a.68.68 0 1 1-.448-.8.672.672 0 0 1 .448.8ZM252.12 88.319a.678.678 0 0 1-.863.516.681.681 0 0 1-.433-.908.681.681 0 0 1 .327-.399.676.676 0 0 1 .914.277.68.68 0 0 1 .055.514Z" opacity=".6"/><path fill="#4263EB" d="m254.632 94.55-7.4 2.92-.44-1.456 7.392-2.92.448 1.456Z" opacity=".5"/><path fill="#101113" d="M213.808 205.738a75.186 75.186 0 0 1-1.344 13.88c-.944 4.112-2.411 7.12-4.4 9.024a9.836 9.836 0 0 1-7.048 2.856c-4.112 0-7.251-2.243-9.416-6.728a19.117 19.117 0 0 1-.968-2.488 115.48 115.48 0 0 0-12.736 12.8l-4.248 5.008a30.906 30.906 0 0 0 7.816 5.752c4.981 2.576 11.52 3.867 19.616 3.872 1.424 0 2.8-.04 4.136-.12a114.696 114.696 0 0 0 12.08-23.2l11.88-30.976-15.368 10.32Z" opacity=".2"/><path fill="#25262B" d="m106.712 248 14 14 39.2-36.936c-13.512-5.16-39.784 9.488-53.2 22.936ZM155.536 296.802c-4.472-4.48-14-14-14-14l36.936-39.2c5.128 13.48-9.52 39.776-22.936 53.2Z"/><path fill="#4263EB" d="m209.12 208.561 15.272-29.448-29.448 15.288a115.405 115.405 0 0 0-25.952 18.4l-50.2 47.256 24.664 24.664 47.256-50.2a115.345 115.345 0 0 0 18.408-25.96Z"/><path fill="#fff" d="m209.12 208.561 15.272-29.448-29.448 15.288a115.405 115.405 0 0 0-25.952 18.4l-50.2 47.256 24.664 24.664 47.256-50.2a115.345 115.345 0 0 0 18.408-25.96Z" opacity=".6"/><path fill="#fff" d="M177.76 236.066c5.7 0 10.32-4.621 10.32-10.32 0-5.7-4.62-10.32-10.32-10.32s-10.32 4.62-10.32 10.32c0 5.699 4.62 10.32 10.32 10.32Z"/><path fill="#4263EB" d="M177.76 232.377a6.632 6.632 0 1 0 0-13.263 6.632 6.632 0 0 0 0 13.263Z"/><path fill="#4263EB" d="m151.8 275.858-24.152-24.152 19.776-18.608 22.984 22.992-18.608 19.768Z" opacity=".3"/><path fill="#4263EB" d="M112.176 270.098c-18.08 1.464-24.072 13.04-26.12 28.424-1.04 7.848-1.504 15.792-8.088 20.384a2.214 2.214 0 0 0-.035 3.641c.39.276.86.419 1.339.407 24.272-.76 35.592-12.64 37.016-17.6a34.462 34.462 0 0 1-1.992 7.576 2.205 2.205 0 0 0 .619 2.513 2.207 2.207 0 0 0 2.581.199c6.808-4.264 15.352-12.12 15.92-24.864-5.008-7.096-21.24-20.68-21.24-20.68Z"/><path fill="#fff" d="M112.176 270.098c-18.08 1.464-24.072 13.04-26.12 28.424-1.04 7.848-1.504 15.792-8.088 20.384a2.214 2.214 0 0 0-.035 3.641c.39.276.86.419 1.339.407 24.272-.76 35.592-12.64 37.016-17.6a34.462 34.462 0 0 1-1.992 7.576 2.205 2.205 0 0 0 .619 2.513 2.207 2.207 0 0 0 2.581.199c6.808-4.264 15.352-12.12 15.92-24.864-5.008-7.096-21.24-20.68-21.24-20.68Z" opacity=".2"/><path fill="#4263EB" d="m136.224 296.241-28.96-28.96 15.424-3.336 16.872 16.872-3.336 15.424Z"/></svg>