<svg width="320" height="320" viewBox="0 0 320 320" fill="none" xmlns="http://www.w3.org/2000/svg">
<path d="M211.514 30.508C211.514 30.508 160.16 11.3784 110.343 40.1784C60.5252 68.9784 35.9364 127.078 14.7716 173.599C-6.39319 220.121 6.72041 267.89 45.2932 290.079C83.866 312.268 109.524 280.601 163.239 279.724C216.954 278.847 231.508 286.841 275.712 256.53C319.917 226.22 327.079 153.414 291.232 99.02C255.386 44.6264 211.514 30.508 211.514 30.508Z" fill="#4263EB"/>
<path opacity="0.7" d="M211.514 30.508C211.514 30.508 160.16 11.3784 110.343 40.1784C60.5252 68.9784 35.9364 127.078 14.7716 173.599C-6.39319 220.121 6.72041 267.89 45.2932 290.079C83.866 312.268 109.524 280.601 163.239 279.724C216.954 278.847 231.508 286.841 275.712 256.53C319.917 226.22 327.079 153.414 291.232 99.02C255.386 44.6264 211.514 30.508 211.514 30.508Z" fill="white"/>
<path d="M106.97 158.887L82.0996 172.41" stroke="#25262B" stroke-width="3" stroke-linecap="round" stroke-linejoin="round"/>
<path d="M59.8467 85.1445L86.4643 95.6149" stroke="#25262B" stroke-width="3" stroke-linecap="round" stroke-linejoin="round"/>
<path d="M91.6992 25.8047L108.717 53.2927" stroke="#25262B" stroke-width="3" stroke-linecap="round" stroke-linejoin="round"/>
<path d="M149.728 13.5859L148.857 35.4035" stroke="#25262B" stroke-width="3" stroke-linecap="round" stroke-linejoin="round"/>
<path d="M199.469 65.5106L221.722 43.2578" stroke="#25262B" stroke-width="3" stroke-linecap="round" stroke-linejoin="round"/>
<path d="M230.445 110.451L249.645 103.91" stroke="#25262B" stroke-width="3" stroke-linecap="round" stroke-linejoin="round"/>
<path d="M212.122 159.32L228.263 168.479" stroke="#25262B" stroke-width="3" stroke-linecap="round" stroke-linejoin="round"/>
<path d="M86.0293 65.0742L99.1173 75.1094" stroke="#25262B" stroke-width="3" stroke-linecap="round" stroke-linejoin="round"/>
<path d="M226.957 83.8398L212.992 90.3806" stroke="#25262B" stroke-width="3" stroke-linecap="round" stroke-linejoin="round"/>
<path d="M90.8225 131.398L75.9873 135.757" stroke="#25262B" stroke-width="3" stroke-linecap="round" stroke-linejoin="round"/>
<path d="M218.228 137.066L225.21 138.814" stroke="#25262B" stroke-width="3" stroke-linecap="round" stroke-linejoin="round"/>
<path d="M224.205 111.089C221.735 109.381 212.442 110.897 206.56 115.64C200.679 120.382 199.354 122.091 199.354 122.091C199.354 122.091 196.698 103.499 196.698 102.929C196.698 102.36 192.903 67.4542 192.141 62.3342C191.38 57.2142 190.221 49.6238 189.108 47.915C187.994 46.2062 183.418 45.995 181.901 46.7822L180.384 47.5374C180.384 47.5374 181.14 34.2574 179.623 31.0318C178.106 27.8062 173.364 29.707 172.032 31.4158C171.086 32.7622 170.322 34.2277 169.76 35.7742C169.76 35.7742 165.396 34.2574 162.932 39.1918C160.468 44.1262 158.567 48.4846 158.189 53.227C157.812 57.9694 155.719 64.043 155.719 64.043C155.719 64.043 153.255 60.0558 150.599 62.3342C147.943 64.6126 144.909 73.5278 144.148 79.979C143.386 86.4302 142.631 103.499 142.631 103.499C142.631 103.499 141.114 111.275 140.352 117.541C139.591 123.806 140.167 149.79 143.008 160.6C145.85 171.409 149.652 178.245 149.652 178.245C149.652 178.245 156.288 200.056 157.236 203.096C158.183 206.136 168.621 247.486 168.621 247.486L199.732 207.998C199.732 207.998 191.956 186.565 190.247 181.63C188.538 176.696 187.399 175.179 187.399 175.179C187.399 175.179 196.884 161.739 202.01 157.726C207.136 153.713 209.786 140.446 211.111 134.584C212.436 128.721 217.94 120.549 220.98 117.893C224.02 115.237 226.669 112.798 224.205 111.089ZM154.01 101.982C153.447 101.982 153.632 94.5838 153.632 85.6686C153.632 76.7534 155.149 72.7662 155.149 72.7662C154.394 76.7534 155.911 96.4782 155.911 97.8094C155.911 99.1406 154.58 101.982 154.01 101.982Z" fill="white" stroke="#25262B" stroke-linecap="round" stroke-linejoin="round"/>
<path d="M182.701 178.448C185.076 177.245 185.504 175.965 185.504 175.965" stroke="#25262B" stroke-linecap="round" stroke-linejoin="round"/>
<path d="M164.064 174.078C164.064 174.078 174.503 180.907 179.623 179.576" stroke="#25262B" stroke-linecap="round" stroke-linejoin="round"/>
<path d="M199.353 122.09C199.353 122.09 195.366 128.349 194.419 130.627C193.472 132.906 192.902 134.8 191.219 135.747C189.536 136.695 187.238 138.026 187.238 138.026" stroke="#25262B" stroke-linecap="round" stroke-linejoin="round"/>
<path d="M187.891 123.945C183.066 126.185 176.275 130.141 172.416 135.939" stroke="#25262B" stroke-linecap="round" stroke-linejoin="round"/>
<path d="M193.472 121.715C193.472 121.715 192.077 122.144 189.965 122.995" stroke="#25262B" stroke-linecap="round" stroke-linejoin="round"/>
<path d="M170.33 138.406C170.33 138.406 166.912 144.665 165.396 149.6" stroke="#25262B" stroke-linecap="round" stroke-linejoin="round"/>
<path d="M169.76 35.7734C169.76 35.7734 168.807 43.7414 167.482 55.6774C166.157 67.6134 165.395 73.5078 165.562 81.0982C165.728 88.6886 167.859 95.3574 167.68 96.2918" stroke="#25262B" stroke-linecap="round" stroke-linejoin="round"/>
<path d="M180.384 47.5391C180.037 51.3263 180.037 55.1374 180.384 58.9247C180.947 65.3695 179.814 77.3247 179.814 81.8751C179.814 86.4255 180 93.2607 180.192 95.3151C180.327 96.6076 180.783 97.846 181.517 98.9183" stroke="#25262B" stroke-linecap="round" stroke-linejoin="round"/>
<path d="M183.987 100.086C183.987 100.086 184.934 101.788 191.194 102.006" stroke="#25262B" stroke-linecap="round" stroke-linejoin="round"/>
<path d="M169.601 95.5312C169.601 95.5312 174.151 96.4784 177.191 95.9152" stroke="#25262B" stroke-linecap="round" stroke-linejoin="round"/>
<path d="M153.063 103.5C153.063 103.5 153.063 105.42 147.565 107.103" stroke="#25262B" stroke-linecap="round" stroke-linejoin="round"/>
<path d="M163.879 98.3772C164.449 97.9996 166.721 97.238 167.29 94.582" stroke="#25262B" stroke-linecap="round" stroke-linejoin="round"/>
<path d="M164.205 127.433C164.205 127.433 176 123.113 183.469 121.539" stroke="#25262B" stroke-linecap="round" stroke-linejoin="round"/>
<path d="M197.69 319.447H299.668C292.545 310.045 266.554 275.786 264.858 274.09C262.894 272.125 254.241 270.947 254.241 270.947L228.686 249.712L196.839 197.027L166.561 239.101L161.441 218.621L150.049 261.117C150.049 261.117 191.335 311.447 192.929 313.411C193.21 313.789 194.99 316.048 197.69 319.447Z" fill="#25262B" stroke="#25262B" stroke-linecap="round" stroke-linejoin="round"/>
<path d="M117.837 171.954C117.837 171.954 109.396 150.335 107.36 146.354C105.325 142.373 94.2788 125.087 93.722 120.402C93.1652 115.717 91.4372 107.909 89.658 104.645C87.8788 101.381 93.178 99.2439 97.5556 103.365C101.933 107.487 104.596 114.245 104.532 116.165C104.468 118.085 114.362 125.349 114.362 125.349L116.16 108.709C116.16 108.709 118.08 67.3719 117.677 61.2023C117.274 55.0327 116.877 41.9319 121.773 41.4263C126.669 40.9207 127.424 44.7991 127.424 44.7991C127.424 44.7991 127.604 35.0327 133.044 35.6663C137.204 36.1463 138.804 40.0695 139.405 41.9511C140.007 43.8327 140.73 46.1879 140.73 46.1879C140.73 46.1879 144.16 43.8583 147.508 49.3879C149.428 52.5879 153.511 62.5975 154.17 65.1447C154.829 67.6919 155.034 68.6135 155.034 68.6135C156.479 68.6507 157.88 69.1165 159.059 69.9518C160.239 70.7871 161.143 71.9542 161.658 73.3047C163.693 78.1495 166.586 90.7959 169.383 101.247C171.095 107.911 171.995 114.757 172.064 121.637C172.064 121.637 173.159 155.282 170.906 165.983C168.653 176.684 164.416 185.823 163.546 186.674C162.676 187.525 150.164 224.485 150.164 224.485L106.746 208.389C106.746 208.389 115.789 186.175 117.216 181.33C118.075 178.283 118.287 175.089 117.837 171.954Z" fill="white" stroke="#25262B" stroke-linecap="round" stroke-linejoin="round"/>
<path d="M108.749 140.414C108.779 141.564 108.964 142.705 109.299 143.806" stroke="#25262B" stroke-linecap="round" stroke-linejoin="round"/>
<path d="M113.03 127.191C111.24 129.548 109.971 132.257 109.305 135.14C109.069 136.084 108.904 137.045 108.812 138.014" stroke="#25262B" stroke-linecap="round" stroke-linejoin="round"/>
<path d="M127.424 44.8008C127.424 44.8008 128.179 58.2408 128.704 64.8328C129.229 71.4248 129.453 81.7032 129.497 88.436C129.542 95.1688 128.723 103.623 128.262 105.46C127.862 106.883 127.366 108.277 126.777 109.633" stroke="#25262B" stroke-linecap="round" stroke-linejoin="round"/>
<path d="M140.73 46.1758C140.097 46.9687 139.642 47.8879 139.395 48.8715C139.148 49.8552 139.114 50.8804 139.296 51.8782C140.007 55.0782 143.309 73.0366 143.303 75.635C143.296 78.2334 143.488 100.819 143.54 102.349C143.591 103.878 142.509 109.024 141.997 111.065" stroke="#25262B" stroke-linecap="round" stroke-linejoin="round"/>
<path d="M155.034 68.6133C155.034 68.6133 152.589 68.8629 153.114 72.6901C153.639 76.5173 154.88 88.9525 154.88 92.4149C154.88 95.8773 155.687 103.884 155.52 111.429C155.354 118.975 157.127 121.599 157.946 123.519" stroke="#25262B" stroke-linecap="round" stroke-linejoin="round"/>
<path d="M117.274 118.941C117.274 118.941 116.404 123.274 117.575 125.514C118.746 127.754 120.372 132.503 120.365 135.114" stroke="#25262B" stroke-linecap="round" stroke-linejoin="round"/>
<path d="M126.042 116.805C126.042 116.805 125.581 120.376 126.087 122.667C126.53 124.315 127.234 125.882 128.173 127.307" stroke="#25262B" stroke-linecap="round" stroke-linejoin="round"/>
<path d="M140.665 122.426C140.665 122.426 140.153 126.202 141.068 128.595C141.619 130.04 142.283 131.44 143.052 132.781" stroke="#25262B" stroke-linecap="round" stroke-linejoin="round"/>
<path d="M120.96 319.449L161.325 228.371C161.325 228.371 144.115 214.15 132.787 206.719C121.459 199.289 107.878 199.481 107.878 199.481C107.878 199.481 90.1439 237.273 89.2095 239.679C88.2751 242.086 75.9103 267.692 75.9103 267.692C75.9103 267.692 70.4767 269.612 68.0639 273.971C66.1759 277.375 52.5568 306.879 46.752 319.481L120.96 319.449Z" fill="#4263EB" stroke="#25262B" stroke-linecap="round" stroke-linejoin="round"/>
<path d="M149.539 234.34C151.328 233.282 151.921 230.974 150.863 229.185C149.805 227.396 147.497 226.804 145.708 227.862C143.919 228.92 143.326 231.228 144.384 233.016C145.442 234.805 147.75 235.398 149.539 234.34Z" fill="#25262B" stroke="#25262B" stroke-linecap="round" stroke-linejoin="round"/>
<path d="M145.588 246.091C145.407 246.813 145.016 247.465 144.464 247.965C143.913 248.465 143.225 248.791 142.489 248.9C141.752 249.009 141 248.897 140.327 248.579C139.654 248.26 139.091 247.749 138.709 247.111C138.326 246.472 138.142 245.734 138.178 244.991C138.215 244.247 138.472 243.531 138.916 242.934C139.36 242.336 139.971 241.883 140.672 241.633C141.373 241.383 142.133 241.346 142.855 241.528C143.334 241.647 143.785 241.86 144.182 242.155C144.579 242.449 144.914 242.819 145.168 243.242C145.422 243.666 145.589 244.136 145.661 244.625C145.733 245.114 145.708 245.612 145.588 246.091Z" fill="#25262B" stroke="#25262B" stroke-linecap="round" stroke-linejoin="round"/>
</svg>
