<svg xmlns="http://www.w3.org/2000/svg" fill="none" viewBox="0 0 163 45">
    <rect width="163" height="44" y=".5" fill="transparent" rx="8.259"/>
    <path fill="#101113"
          d="M16.112 16.793h2.642v1.573a3.951 3.951 0 0 1 1.391-1.311 3.835 3.835 0 0 1 1.946-.504c1.244 0 2.299.487 3.166 1.462.867.974 1.3 2.332 1.3 4.073 0 1.788-.436 3.18-1.31 4.174-.874.988-1.933 1.482-3.176 1.482-.591 0-1.13-.118-1.613-.353-.477-.235-.981-.638-1.512-1.21v5.394h-2.834v-14.78Zm2.803 5.172c0 1.203.239 2.094.716 2.672.477.571 1.059.857 1.744.857.659 0 1.207-.262 1.644-.787.437-.53.655-1.398.655-2.601 0-1.123-.225-1.956-.675-2.5-.45-.545-1.009-.817-1.674-.817-.692 0-1.267.269-1.724.806-.457.532-.686 1.321-.686 2.37Zm16.102 2.127 2.823.474c-.363 1.035-.938 1.825-1.724 2.37-.78.537-1.758.806-2.934.806-1.862 0-3.24-.608-4.134-1.825-.706-.975-1.059-2.205-1.059-3.69 0-1.774.464-3.163 1.392-4.164.927-1.008 2.1-1.512 3.518-1.512 1.593 0 2.85.527 3.771 1.583.921 1.048 1.361 2.658 1.32 4.829h-7.097c.02.84.249 1.495.686 1.966.437.464.98.696 1.633.696.444 0 .817-.121 1.119-.363.302-.242.531-.632.686-1.17Zm.16-2.863c-.02-.82-.23-1.442-.634-1.865a1.942 1.942 0 0 0-1.472-.646c-.619 0-1.13.226-1.533.676-.403.45-.601 1.062-.595 1.835h4.235Zm4.477.766c0-.94.232-1.852.696-2.732a4.783 4.783 0 0 1 1.966-2.017c.854-.463 1.805-.695 2.853-.695 1.62 0 2.948.527 3.983 1.583 1.035 1.048 1.553 2.376 1.553 3.982 0 1.62-.525 2.964-1.573 4.033-1.042 1.062-2.356 1.593-3.942 1.593a6.248 6.248 0 0 1-2.813-.666 4.576 4.576 0 0 1-2.027-1.945c-.464-.86-.696-1.906-.696-3.136Zm2.904.151c0 1.062.252 1.876.756 2.44.505.565 1.126.847 1.866.847.739 0 1.357-.282 1.855-.847.504-.564.756-1.384.756-2.46 0-1.048-.252-1.855-.756-2.42-.498-.564-1.116-.846-1.855-.846-.74 0-1.361.282-1.866.846-.504.565-.756 1.378-.756 2.44Zm10.294-5.353h2.642v1.573a3.951 3.951 0 0 1 1.391-1.311 3.835 3.835 0 0 1 1.946-.504c1.243 0 2.299.487 3.166 1.462.867.974 1.3 2.332 1.3 4.073 0 1.788-.436 3.18-1.31 4.174-.874.988-1.933 1.482-3.176 1.482-.592 0-1.13-.118-1.613-.353-.478-.235-.982-.638-1.513-1.21v5.394h-2.833v-14.78Zm2.803 5.172c0 1.203.239 2.094.716 2.672.477.571 1.058.857 1.744.857.659 0 1.207-.262 1.643-.787.437-.53.656-1.398.656-2.601 0-1.123-.225-1.956-.676-2.5-.45-.545-1.008-.817-1.673-.817-.693 0-1.267.269-1.724.806-.457.532-.686 1.321-.686 2.37Zm9.9 5.535V12.72h2.834V27.5h-2.833Zm11.948-3.408 2.823.474c-.363 1.035-.937 1.825-1.724 2.37-.78.537-1.757.806-2.934.806-1.862 0-3.24-.608-4.133-1.825-.706-.975-1.059-2.205-1.059-3.69 0-1.774.464-3.163 1.391-4.164.928-1.008 2.1-1.512 3.519-1.512 1.593 0 2.85.527 3.77 1.583.922 1.048 1.362 2.658 1.322 4.829H73.38c.02.84.248 1.495.685 1.966.437.464.982.696 1.634.696.443 0 .816-.121 1.119-.363.302-.242.53-.632.685-1.17Zm.162-2.863c-.02-.82-.232-1.442-.636-1.865a1.942 1.942 0 0 0-1.472-.646c-.618 0-1.129.226-1.532.676-.403.45-.602 1.062-.595 1.835h4.235Zm5.131 6.271v-2.833h2.834V27.5h-2.834Zm4.507-10.707h1.573v-.807c0-.9.094-1.573.282-2.016.195-.444.548-.804 1.06-1.08.517-.282 1.169-.423 1.955-.423.807 0 1.596.121 2.37.363l-.384 1.976a5.598 5.598 0 0 0-1.3-.16c-.41 0-.706.097-.888.291-.174.189-.262.555-.262 1.1v.756h2.117v2.228H91.71V27.5h-2.833v-8.48h-1.573v-2.227ZM95.42 27.5V12.72h2.833V27.5h-2.834Zm5.091-5.505c0-.94.232-1.852.696-2.732a4.784 4.784 0 0 1 1.966-2.017c.853-.463 1.805-.695 2.853-.695 1.62 0 2.947.527 3.983 1.583 1.035 1.048 1.552 2.376 1.552 3.982 0 1.62-.524 2.964-1.573 4.033-1.041 1.062-2.355 1.593-3.942 1.593a6.25 6.25 0 0 1-2.813-.666 4.578 4.578 0 0 1-2.026-1.945c-.464-.86-.696-1.906-.696-3.136Zm2.904.151c0 1.062.252 1.876.756 2.44.504.565 1.126.847 1.865.847.74 0 1.358-.282 1.855-.847.504-.564.756-1.384.756-2.46 0-1.048-.252-1.855-.756-2.42-.497-.564-1.115-.846-1.855-.846-.739 0-1.361.282-1.865.846-.504.565-.756 1.378-.756 2.44Zm12.371 5.354-3.388-10.707h2.753l2.006 7.017 1.845-7.017h2.732l1.785 7.017 2.046-7.017h2.793L124.92 27.5h-2.722l-1.845-6.886-1.815 6.886h-2.752Z"/>
    <line x1="14" y1="34" x2="128" y2="33" stroke="#4263EB" stroke-width="1"/>
    <path stroke="#4263EB" stroke-linecap="square" stroke-width=".828"
          d="m143.425 20.477-1.974 2m-2.092-3.977v3.116m-6.648 2.657 2.955.46m-1.613 4.105.998-.988.998-.99m-1.614-6.49 2.341 2.107"/>
    <g clip-path="url(#a)">
        <path fill="#101113"
              d="m148.301 27.377-10.305-3.89a.406.406 0 0 0-.433.095.415.415 0 0 0-.097.437l3.861 10.455a.414.414 0 0 0 .395.27.407.407 0 0 0 .38-.29l1.104-3.637 3.741 3.699a.408.408 0 0 0 .579 0l.964-.977a.42.42 0 0 0 0-.586l-3.729-3.681 3.54-1.11a.415.415 0 0 0 .2-.634.407.407 0 0 0-.2-.151Z"/>
    </g>
    <defs>
        <clipPath id="a">
            <path fill="#fff" d="M136.403 22.24h14.769V37.2h-14.769z"/>
        </clipPath>
    </defs>
</svg>