<svg xmlns="http://www.w3.org/2000/svg" fill="none" viewBox="0 0 317 317"><path fill="#4263EB" d="M53.053 91.62c-10.417 87.415 90.732 172.219 168.993 109.428 35.333-28.347 60.68-118.99.894-132.266-34.287-7.608-71.141 22.824-103.824 10.848-15.711-5.75-23.756-28.378-42.015-25.994C59.957 55.912 54.79 77.05 53.053 91.62Z"/><path fill="#fff" d="M53.053 91.62c-10.417 87.415 90.732 172.219 168.993 109.428 35.333-28.347 60.68-118.99.894-132.266-34.287-7.608-71.141 22.824-103.824 10.848-15.711-5.75-23.756-28.378-42.015-25.994C59.957 55.912 54.79 77.05 53.053 91.62Z" opacity=".9"/><path fill="#E9ECEF" d="M158.5 271.073c67.89 0 122.926-3.214 122.926-7.177 0-3.964-55.036-7.177-122.926-7.177s-122.926 3.213-122.926 7.177c0 3.963 55.036 7.177 122.926 7.177Z"/><path fill="#4263EB" d="M266.153 92.45h-62.195a5.94 5.94 0 0 0-5.941 5.94v16.915a5.94 5.94 0 0 0 5.941 5.94h62.195a5.94 5.94 0 0 0 5.941-5.94V98.39a5.94 5.94 0 0 0-5.941-5.94Z"/><path fill="#4263EB" d="M253.816 97.305h-48.584a1.04 1.04 0 0 0-1.04 1.04v1.14c0 .575.466 1.04 1.04 1.04h48.584c.574 0 1.039-.465 1.039-1.04v-1.14a1.04 1.04 0 0 0-1.039-1.04ZM238.428 105.066h-33.196a1.04 1.04 0 0 0-1.04 1.04v1.141c0 .575.466 1.04 1.04 1.04h33.196a1.04 1.04 0 0 0 1.04-1.04v-1.141a1.04 1.04 0 0 0-1.04-1.04ZM229.527 112.826h-24.295a1.04 1.04 0 0 0-1.04 1.04v1.141c0 .574.466 1.04 1.04 1.04h24.295a1.04 1.04 0 0 0 1.04-1.04v-1.141a1.04 1.04 0 0 0-1.04-1.04ZM259.636 112.826h-24.295a1.04 1.04 0 0 0-1.04 1.04v1.141c0 .574.466 1.04 1.04 1.04h24.295a1.04 1.04 0 0 0 1.039-1.04v-1.141a1.04 1.04 0 0 0-1.039-1.04Z"/><g fill="#fff" opacity=".5"><path d="M253.816 97.305h-48.584a1.04 1.04 0 0 0-1.04 1.04v1.14c0 .575.466 1.04 1.04 1.04h48.584c.574 0 1.039-.465 1.039-1.04v-1.14a1.04 1.04 0 0 0-1.039-1.04ZM238.428 105.064h-33.196a1.04 1.04 0 0 0-1.04 1.04v1.141c0 .575.466 1.04 1.04 1.04h33.196a1.04 1.04 0 0 0 1.04-1.04v-1.141a1.04 1.04 0 0 0-1.04-1.04ZM229.527 112.824h-24.295a1.04 1.04 0 0 0-1.04 1.04v1.141c0 .574.466 1.04 1.04 1.04h24.295a1.04 1.04 0 0 0 1.04-1.04v-1.141a1.04 1.04 0 0 0-1.04-1.04ZM259.636 112.824h-24.295a1.04 1.04 0 0 0-1.04 1.04v1.141c0 .574.466 1.04 1.04 1.04h24.295a1.04 1.04 0 0 0 1.039-1.04v-1.141a1.04 1.04 0 0 0-1.039-1.04Z"/></g><path fill="#4263EB" d="M216.333 85.734h-70.595a8.711 8.711 0 0 0-8.712 8.712v24.802c0 4.811 3.9 8.711 8.712 8.711h70.595c4.811 0 8.712-3.9 8.712-8.711V94.445a8.712 8.712 0 0 0-8.712-8.71Z"/><path fill="#4263EB" d="M218.831 92.856h-71.223c-.844 0-1.528.684-1.528 1.527v1.668c0 .844.684 1.528 1.528 1.528h71.223c.844 0 1.528-.684 1.528-1.528v-1.668c0-.843-.684-1.527-1.528-1.527ZM196.267 104.234h-48.659c-.844 0-1.528.684-1.528 1.528v1.668c0 .844.684 1.528 1.528 1.528h48.659c.844 0 1.528-.684 1.528-1.528v-1.668c0-.844-.684-1.528-1.528-1.528ZM183.22 115.615h-35.612c-.844 0-1.528.684-1.528 1.528v1.668c0 .843.684 1.528 1.528 1.528h35.612c.843 0 1.527-.685 1.527-1.528v-1.668c0-.844-.684-1.528-1.527-1.528ZM221.424 115.615h-29.671c-.844 0-1.528.684-1.528 1.528v1.668c0 .843.684 1.528 1.528 1.528h29.671c.844 0 1.528-.685 1.528-1.528v-1.668c0-.844-.684-1.528-1.528-1.528Z"/><g fill="#fff" opacity=".5"><path d="M218.831 92.856h-71.223c-.844 0-1.528.684-1.528 1.527v1.668c0 .844.684 1.528 1.528 1.528h71.223c.844 0 1.528-.684 1.528-1.528v-1.668c0-.843-.684-1.527-1.528-1.527ZM196.267 104.236h-48.659c-.844 0-1.528.684-1.528 1.528v1.668c0 .844.684 1.528 1.528 1.528h48.659c.844 0 1.528-.684 1.528-1.528v-1.668c0-.844-.684-1.528-1.528-1.528ZM183.22 115.615h-35.612c-.844 0-1.528.684-1.528 1.528v1.668c0 .843.684 1.528 1.528 1.528h35.612c.843 0 1.527-.685 1.527-1.528v-1.668c0-.844-.684-1.528-1.527-1.528ZM221.424 115.615h-29.671c-.844 0-1.528.684-1.528 1.528v1.668c0 .843.684 1.528 1.528 1.528h29.671c.844 0 1.528-.685 1.528-1.528v-1.668c0-.844-.684-1.528-1.528-1.528Z"/></g><path fill="#4263EB" d="M172.442 135.611H138.44a4.07 4.07 0 0 0-4.07 4.071v50.935a4.07 4.07 0 0 0 4.07 4.07h34.002a4.07 4.07 0 0 0 4.07-4.07v-50.935a4.07 4.07 0 0 0-4.07-4.071Z"/><path fill="#101113" d="M172.442 135.611H138.44a4.07 4.07 0 0 0-4.07 4.071v50.935a4.07 4.07 0 0 0 4.07 4.07h34.002a4.07 4.07 0 0 0 4.07-4.07v-50.935a4.07 4.07 0 0 0-4.07-4.071Z" opacity=".4"/><path fill="#F8F9FA" d="M170.882 141.773h-30.889a.748.748 0 0 0-.748.749v1.122c0 .413.335.748.748.748h30.889a.748.748 0 0 0 .748-.748v-1.122a.748.748 0 0 0-.748-.749ZM161.049 148.076h-21.056a.748.748 0 0 0-.748.748v1.122c0 .414.335.749.748.749h21.056a.748.748 0 0 0 .748-.749v-1.122a.748.748 0 0 0-.748-.748ZM170.882 154.385h-30.889a.748.748 0 0 0-.748.748v1.122c0 .413.335.748.748.748h30.889a.748.748 0 0 0 .748-.748v-1.122a.748.748 0 0 0-.748-.748ZM151.475 160.686h-11.482a.747.747 0 0 0-.748.748v1.122c0 .413.335.748.748.748h11.482a.748.748 0 0 0 .748-.748v-1.122a.747.747 0 0 0-.748-.748ZM167.541 160.686h-11.482a.747.747 0 0 0-.748.748v1.122c0 .413.335.748.748.748h11.482a.748.748 0 0 0 .748-.748v-1.122a.747.747 0 0 0-.748-.748ZM170.882 166.994h-30.889a.748.748 0 0 0-.748.748v1.122c0 .414.335.749.748.749h30.889a.748.748 0 0 0 .748-.749v-1.122a.748.748 0 0 0-.748-.748ZM170.882 173.297h-30.889a.748.748 0 0 0-.748.748v1.122c0 .413.335.748.748.748h30.889a.748.748 0 0 0 .748-.748v-1.122a.748.748 0 0 0-.748-.748ZM165.404 179.605h-25.411a.748.748 0 0 0-.748.749v1.122c0 .413.335.748.748.748h25.411a.748.748 0 0 0 .748-.748v-1.122a.748.748 0 0 0-.748-.749ZM151.849 185.906h-11.856a.748.748 0 0 0-.748.748v1.123c0 .413.335.748.748.748h11.856a.748.748 0 0 0 .748-.748v-1.123a.748.748 0 0 0-.748-.748Z"/><path fill="#4263EB" d="M181.641 135.25h-47.163l20.852 16.592 31.972 12.046v-22.989a5.661 5.661 0 0 0-5.661-5.649Z"/><path fill="#101113" d="M181.641 135.25h-47.163l20.852 16.592 31.972 12.046v-22.989a5.661 5.661 0 0 0-5.661-5.649Z" opacity=".4"/><path fill="#F8F9FA" d="M179.58 143.797h-34.508a.938.938 0 0 0-.938.938v1.75c0 .518.42.938.938.938h34.508c.519 0 .939-.42.939-.938v-1.75a.938.938 0 0 0-.939-.938Z"/><path fill="#4263EB" d="M263.205 180.162v-33.171a4.602 4.602 0 0 0-4.603-4.602h-57.599a4.602 4.602 0 0 0-4.602 4.602v33.171a4.602 4.602 0 0 0 4.602 4.603h57.599a4.603 4.603 0 0 0 4.603-4.603Z"/><path fill="#4263EB" d="M273.723 169.651V136.48a4.603 4.603 0 0 0-4.603-4.603h-57.599a4.602 4.602 0 0 0-4.602 4.603v33.171a4.602 4.602 0 0 0 4.602 4.603h57.599a4.603 4.603 0 0 0 4.603-4.603Z"/><path fill="#fff" d="M273.723 169.651V136.48a4.603 4.603 0 0 0-4.603-4.603h-57.599a4.602 4.602 0 0 0-4.602 4.603v33.171a4.602 4.602 0 0 0 4.602 4.603h57.599a4.603 4.603 0 0 0 4.603-4.603Z" opacity=".5"/><path fill="#4263EB" d="M267.878 158.283v-20.421a2.048 2.048 0 0 0-2.048-2.048h-18.824a2.047 2.047 0 0 0-2.047 2.048v20.421c0 1.131.916 2.048 2.047 2.048h18.824a2.048 2.048 0 0 0 2.048-2.048Z"/><path fill="#fff" d="M267.878 158.283v-20.421a2.048 2.048 0 0 0-2.048-2.048h-18.824a2.047 2.047 0 0 0-2.047 2.048v20.421c0 1.131.916 2.048 2.047 2.048h18.824a2.048 2.048 0 0 0 2.048-2.048Z" opacity=".7"/><path fill="#4263EB" d="M241.37 168.161v-15.647c0-.869-.704-1.573-1.572-1.573h-14.424c-.868 0-1.572.704-1.572 1.573v15.647c0 .868.704 1.572 1.572 1.572h14.424c.868 0 1.572-.704 1.572-1.572Z"/><path fill="#fff" d="M241.37 168.161v-15.647c0-.869-.704-1.573-1.572-1.573h-14.424c-.868 0-1.572.704-1.572 1.573v15.647c0 .868.704 1.572 1.572 1.572h14.424c.868 0 1.572-.704 1.572-1.572Z" opacity=".3"/><path fill="#4263EB" d="M232.583 68.952v-8.45a4.679 4.679 0 0 0-4.679-4.68H73.125a4.679 4.679 0 0 0-4.678 4.68v8.45a4.679 4.679 0 0 0 4.678 4.68h154.779a4.679 4.679 0 0 0 4.679-4.68Z"/><path fill="#fff" d="M232.583 68.952v-8.45a4.679 4.679 0 0 0-4.679-4.68H73.125a4.679 4.679 0 0 0-4.678 4.68v8.45a4.679 4.679 0 0 0 4.678 4.68h154.779a4.679 4.679 0 0 0 4.679-4.68Z" opacity=".5"/><path fill="#4263EB" d="M203.298 76.611v-6.13H158.76v6.13h44.538Z"/><path fill="#fff" d="M203.298 76.611v-6.13H158.76v6.13h44.538Z" opacity=".5"/><path fill="#4263EB" d="M248.553 42.642V34.19a4.679 4.679 0 0 0-4.679-4.68H89.096a4.679 4.679 0 0 0-4.679 4.68v8.45a4.679 4.679 0 0 0 4.679 4.68h154.778a4.679 4.679 0 0 0 4.679-4.68Z"/><path fill="#FFA8A8" d="M82.648 123.161c-.558 1.268-1.173 2.638-1.712 3.975-.538 1.338-1.096 2.714-1.585 4.083a57.932 57.932 0 0 0-2.402 8.198l-.184 1.014-.064.381c0 .108 0 .247-.038.374-.024.617-.011 1.235.038 1.851.12 1.338.336 2.771.634 4.204.533 2.872 1.211 5.832 1.902 8.749l-3.252 1.268a58.758 58.758 0 0 1-3.861-8.616 36.204 36.204 0 0 1-1.344-4.736c-.19-.89-.31-1.793-.355-2.701v-.767c0-.273 0-.577.044-.755l.127-1.268c.19-1.633.48-3.253.869-4.85.355-1.585.811-3.125 1.268-4.647.456-1.522 1.027-3.018 1.629-4.489.298-.735.634-1.464.926-2.193.291-.729.634-1.427 1.04-2.207l6.32 3.132Z"/><path fill="#FFA8A8" d="m79.066 155.133 2.473 2.415-5.396 2.536s-1.306-2.288-.4-4.355l3.323-.596Z"/><path fill="#FFA8A8" d="m83.536 161.144-4.559 1.864-2.827-2.949 5.389-2.51 1.997 3.595Z"/><path fill="#F8F9FA" d="M175.878 158.544a45.644 45.644 0 0 1-38.763-32.701 45.642 45.642 0 0 1 15.368-48.33 45.647 45.647 0 0 1 68.461 57.711 45.636 45.636 0 0 1-27.311 21.814 45.641 45.641 0 0 1-17.755 1.506Z" opacity=".4"/><path fill="#F8F9FA" d="m209.087 77.216-69.423 55.468a60.7 60.7 0 0 1-.843-1.902 45.127 45.127 0 0 1-3.303-12.984l59.963-47.911a45.113 45.113 0 0 1 13.606 7.329ZM225.108 101.516l-65.27 52.146a45.551 45.551 0 0 1-15.704-13.492l71.267-56.945a45.65 45.65 0 0 1 9.707 18.291Z" opacity=".4"/><path fill="#4263EB" d="m129.583 95.734-.602-.202a55.573 55.573 0 0 1 3.918-8.908l.552.304a55.053 55.053 0 0 0-3.868 8.806Zm7.697-14.797-.514-.374a54.978 54.978 0 0 1 19.889-16.617l.285.57a54.362 54.362 0 0 0-19.66 16.44v-.02Zm69.48-15.552a53.006 53.006 0 0 0-6.416-2.91l.228-.596a54.283 54.283 0 0 1 6.48 2.967l-.292.539Z"/><path fill="#101113" d="m129.583 95.734-.602-.202a55.573 55.573 0 0 1 3.918-8.908l.552.304a55.053 55.053 0 0 0-3.868 8.806Zm7.697-14.797-.514-.374a54.978 54.978 0 0 1 19.889-16.617l.285.57a54.362 54.362 0 0 0-19.66 16.44v-.02Zm69.48-15.552a53.006 53.006 0 0 0-6.416-2.91l.228-.596a54.283 54.283 0 0 1 6.48 2.967l-.292.539Z" opacity=".3"/><path fill="#4263EB" d="M228.158 89.864a52.623 52.623 0 0 0-95.694 1.953 52.62 52.62 0 0 0-1.086 39.085c-4.236 1.484-8.42 3.075-12.579 4.717a525.032 525.032 0 0 0-17.828 7.456c-5.884 2.606-11.742 5.262-17.543 8.039-2.91 1.363-5.782 2.802-8.68 4.197a12.556 12.556 0 0 0-4.019 2.758c-.62.65-1.167 1.366-1.63 2.137-.564.911-.99 1.9-1.267 2.935a8.064 8.064 0 0 0 4.647 9.415c.983.413 2.021.682 3.081.799.895.101 1.8.101 2.695 0 1.627-.198 3.2-.712 4.628-1.515 2.872-1.452 5.763-2.853 8.616-4.343a674.653 674.653 0 0 0 17.048-9.028 474.1 474.1 0 0 0 16.782-9.618c3.804-2.302 7.646-4.654 11.412-7.114a52.619 52.619 0 0 0 70.421 17.61 52.623 52.623 0 0 0 21.008-69.484h-.012Zm-28.822 60.565a41.54 41.54 0 0 1-45.769-6.007 41.544 41.544 0 0 1 2.072-64.195 41.545 41.545 0 1 1 43.697 70.202Z"/><path fill="#101113" d="M228.158 89.864a52.623 52.623 0 0 0-95.694 1.953 52.62 52.62 0 0 0-1.086 39.085c-4.236 1.484-8.42 3.075-12.579 4.717a525.032 525.032 0 0 0-17.828 7.456c-5.884 2.606-11.742 5.262-17.543 8.039-2.91 1.363-5.782 2.802-8.68 4.197a12.556 12.556 0 0 0-4.019 2.758c-.62.65-1.167 1.366-1.63 2.137-.564.911-.99 1.9-1.267 2.935a8.064 8.064 0 0 0 4.647 9.415c.983.413 2.021.682 3.081.799.895.101 1.8.101 2.695 0 1.627-.198 3.2-.712 4.628-1.515 2.872-1.452 5.763-2.853 8.616-4.343a674.653 674.653 0 0 0 17.048-9.028 474.1 474.1 0 0 0 16.782-9.618c3.804-2.302 7.646-4.654 11.412-7.114a52.619 52.619 0 0 0 70.421 17.61 52.623 52.623 0 0 0 21.008-69.484h-.012Zm-28.822 60.565a41.54 41.54 0 0 1-45.769-6.007 41.544 41.544 0 0 1 2.072-64.195 41.545 41.545 0 1 1 43.697 70.202Z" opacity=".3"/><path fill="#25262B" d="M100.172 100.52c0 .374.196.679.444.679.247 0 .443-.305.443-.679 0-.374-.196-.678-.443-.678-.248 0-.444.329-.444.678Z"/><path fill="#FFA8A8" d="M100.35 101.199a13.504 13.504 0 0 0 1.794 3.215 2.17 2.17 0 0 1-1.794.336v-3.551Z"/><path fill="#25262B" d="M98.86 98.435a.236.236 0 0 1-.184-.089.228.228 0 0 1 .05-.31 2.174 2.174 0 0 1 1.985-.336.22.22 0 0 1 .098.37.223.223 0 0 1-.257.041 1.728 1.728 0 0 0-1.566.286.229.229 0 0 1-.126.038Z"/><path fill="#FFA8A8" d="M87.365 103.342c.634 3.404 1.332 9.649-1.052 11.925 0 0 .932 3.456 7.265 3.456 6.974 0 3.322-3.456 3.322-3.456-3.803-.913-3.696-3.728-3.036-6.378l-6.499-5.547Z"/><path fill="#4263EB" d="M83.466 117.061c.755-1.172-.513-4.019-.513-4.019s11.209-2.821 15.793 1.509c.95.894-.102 2.212-.102 2.212l-15.178.298Z"/><path fill="#101113" d="M83.466 117.061c.755-1.172-.513-4.019-.513-4.019s11.209-2.821 15.793 1.509c.95.894-.102 2.212-.102 2.212l-15.178.298Z" opacity=".1"/><path fill="#4263EB" d="M64.921 246.417c-.59 0-1.534-.983-1.813-1.351a.11.11 0 0 1-.018-.06.11.11 0 0 1 .018-.06.114.114 0 0 1 .043-.043.11.11 0 0 1 .059-.014c.07 0 1.623.139 2.047.691a.513.513 0 0 1 .102.418.457.457 0 0 1-.33.412l-.108.007Zm-1.47-1.268c.462.532 1.204 1.134 1.521 1.058 0 0 .127-.031.165-.234a.285.285 0 0 0-.063-.241 2.96 2.96 0 0 0-1.623-.596v.013Z"/><path fill="#4263EB" d="M63.52 245.135a1.633 1.633 0 0 1-.342 0 .1.1 0 0 1-.089-.069.13.13 0 0 1-.013-.057c0-.02.004-.04.013-.057.045-.038.977-1.008 1.68-1.008a.596.596 0 0 1 .45.19.36.36 0 0 1 .09.444c-.185.355-1.155.557-1.789.557Zm-.082-.221c.634 0 1.553-.197 1.705-.476 0 0 .045-.082-.057-.184a.377.377 0 0 0-.291-.12c-.52.119-.992.39-1.357.78ZM106.759 260.809a8.405 8.405 0 0 1-1.433-.133.097.097 0 0 1-.059-.036.096.096 0 0 1-.023-.065.111.111 0 0 1 .051-.114c.069-.038 1.692-.97 2.472-.755a.531.531 0 0 1 .349.254.418.418 0 0 1 0 .482c-.184.285-.761.367-1.357.367Zm-1.071-.298c.862.127 2.041.121 2.257-.184.031-.038.057-.107 0-.24a.359.359 0 0 0-.216-.159c-.494-.127-1.477.292-2.041.583Z"/><path fill="#4263EB" d="M105.352 260.682a.116.116 0 0 1-.064 0 .1.1 0 0 1-.044-.107c.043-.66.296-1.289.723-1.795a.796.796 0 0 1 .634-.184c.304 0 .393.184.412.305.082.526-1.027 1.534-1.592 1.788l-.069-.007Zm1.135-1.902a.578.578 0 0 0-.381.14c-.358.4-.58.904-.634 1.439.571-.349 1.332-1.135 1.268-1.452 0 0 0-.108-.215-.127h-.038Z"/><path fill="#FFA8A8" d="M100.229 260.568h4.66l.463-10.785h-4.66l-.463 10.785ZM58.734 242.055l3.892 2.548 8.597-7.259-3.899-2.555-8.59 7.266Z"/><path fill="#25262B" d="m63.267 244.364-4.045-3.316a.398.398 0 0 0-.507 0l-3.335 2.618a.683.683 0 0 0-.19.833c.044.093.11.175.19.239 1.433 1.135 2.187 1.616 3.969 3.075 1.097.894 3.804 3.632 5.332 4.869 1.528 1.236 2.929-.095 2.422-.736-2.276-2.884-3.17-5.351-3.43-6.879a1.145 1.145 0 0 0-.406-.703ZM104.857 260.029h-5.072a.414.414 0 0 0-.4.317l-.919 4.14a.68.68 0 0 0 .673.831c1.832-.032 4.482-.14 6.79-.14 2.694 0 5.027.146 8.185.146 1.902 0 2.447-1.934 1.642-2.105-3.639-.799-6.619-.881-9.764-2.827a2.176 2.176 0 0 0-1.135-.362ZM77.132 116.657c-4.038 1.902-6.34 14.645-6.34 14.645l9.872 3.937a73.411 73.411 0 0 0 3.493-10.873c1.357-5.87-2.89-9.675-7.025-7.709Z"/><path fill="#25262B" d="M82.37 123.839c-2.442 2.472-3.558 7.316-4.046 10.467l2.365.945a73.992 73.992 0 0 0 3.424-10.556c-.21-1.345-.73-1.883-1.744-.856Z"/><path fill="#25262B" d="M104.065 116.567s4.958 5.605.279 40.259h-24.91c-.171-3.804 2.231-22.475-1.458-40.493a63.703 63.703 0 0 1 8.337-1.053 89.474 89.474 0 0 1 10.587 0 47.07 47.07 0 0 1 7.165 1.287Z"/><path fill="#25262B" d="m106.341 130.021-4.197-7.234a36.988 36.988 0 0 0-.983 10.315c.114 2.486 2.39 11.691 4.438 13.035a146.5 146.5 0 0 0 .742-16.116Z"/><path fill="#FFA8A8" d="M106.924 121.52c.634 3.081 1.268 6.238 1.946 9.332.679 3.094 1.383 6.201 2.2 9.199.21.742.406 1.503.634 2.213l.172.545.082.273v-.032c-.044-.057-.095-.063-.057 0 .26.285.594.493.964.602.599.224 1.216.395 1.845.514 2.997.475 6.032.672 9.066.59l.602 3.449c-.85.272-1.642.469-2.479.665-.837.197-1.661.362-2.504.488-1.745.291-3.514.41-5.281.356a14.34 14.34 0 0 1-2.917-.381 8.484 8.484 0 0 1-3.347-1.553 6.108 6.108 0 0 1-1.566-1.902c-.102-.19-.191-.406-.273-.59l-.114-.298-.235-.634c-.323-.805-.589-1.597-.881-2.39-1.071-3.17-1.965-6.372-2.751-9.567a138.125 138.125 0 0 1-2.029-9.662l6.923-1.217Z"/><path fill="#25262B" d="M97.845 119.967c-1.312 4.254 4.007 16.94 4.007 16.94l10.594-2.663s-.406-6.593-2.821-11.824c-3.639-7.887-10.207-7.557-11.78-2.453Z"/><path fill="#FFA8A8" d="m123.687 144.754 5.275-.133-2.536 5.491s-2.149.285-3.912-2.613l-1.858-2.219 2.137-.424c.294-.062.594-.096.894-.102ZM132.291 145.642l-3.018 4.552-2.847-.082 2.536-5.491 3.329 1.021ZM105.352 249.783l-.241 5.56h-4.66l.241-5.56h4.66ZM67.325 234.789l3.899 2.555-4.438 3.741-3.893-2.549 4.431-3.747ZM87.657 99.716c.279 4.61.21 7.329 2.536 9.694 3.5 3.57 9.2 1.458 10.302-3.17.996-4.146.374-10.993-4.14-12.832a6.34 6.34 0 0 0-8.698 6.308Z"/><path fill="#25262B" d="M82.23 98.905c1.147 4.204 3.848 9.047 7.341 9.358 4.337.38 6.296-4.102 6.867-8.73 2.6-1.782 1.236-3.74 3.842-3.988 3.347-.317 2.276-6.441-2.13-7.424 0 0 1.477 2.758-1.624 1.363a17.89 17.89 0 0 0-9.471-1.642s3.956 1.978.088 2.86c-3.867.88-5.021 3.264-3.24 4.704 0 .006-2.428.735-1.673 3.5Z"/><path fill="#FFA8A8" d="M93.794 100.482a5.213 5.213 0 0 0 1.312 3.088c1.015 1.122 2.073.425 2.25-.939.166-1.223-.17-3.284-1.413-3.905-1.242-.621-2.232.374-2.15 1.756Z"/><path fill="#4263EB" d="M95.506 156.827s4.539 32.873.963 46.047c-5.668 20.859-27.338 38.465-27.338 38.465l-7.348-4.819s18.456-14.867 20.713-32.334c2.029-15.678-3.062-34.641-3.062-47.366l16.072.007Z"/><path fill="#101113" d="M95.506 156.827s4.539 32.873.963 46.047c-5.668 20.859-27.338 38.465-27.338 38.465l-7.348-4.819s18.456-14.867 20.713-32.334c2.029-15.678-3.062-34.641-3.062-47.366l16.072.007Z" opacity=".1"/><path fill="#4263EB" d="M97.382 175.618a30.758 30.758 0 0 0-3.975-3.804c.774 10.671 1.408 26.476.704 37.704a48.416 48.416 0 0 0 2.358-6.638c1.744-6.435 1.56-17.549.913-27.262Z"/><path fill="#101113" d="M97.382 175.618a30.758 30.758 0 0 0-3.975-3.804c.774 10.671 1.408 26.476.704 37.704a48.416 48.416 0 0 0 2.358-6.638c1.744-6.435 1.56-17.549.913-27.262Z" opacity=".3"/><path fill="#4263EB" d="M72.092 239.697c.032 0-2.847 1.902-2.847 1.902l-8.026-5.262 2.536-2.099 8.337 5.459Z"/><path fill="#101113" d="M72.092 239.697c.032 0-2.847 1.902-2.847 1.902l-8.026-5.262 2.536-2.099 8.337 5.459Z" opacity=".3"/><path fill="#4263EB" d="M104.344 156.826s7.012 29.735 7.506 43.943c.558 15.926-5.002 53.497-5.002 53.497h-7.893s-.97-37.863-1.319-52.369c-.387-15.818-9.668-45.071-9.668-45.071h16.376Z"/><path fill="#101113" d="M104.344 156.826s7.012 29.735 7.506 43.943c.558 15.926-5.002 53.497-5.002 53.497h-7.893s-.97-37.863-1.319-52.369c-.387-15.818-9.668-45.071-9.668-45.071h16.376Z" opacity=".1"/><path fill="#4263EB" d="M108.363 251.127c.038 0-.444 3.271-.444 3.271h-9.598l-.26-2.922 10.302-.349Z"/><path fill="#101113" d="M108.363 251.127c.038 0-.444 3.271-.444 3.271h-9.598l-.26-2.922 10.302-.349Z" opacity=".3"/><path fill="#FFA8A8" d="M225.704 128.252c.539.507.964.938 1.407 1.42.444.482.863.951 1.268 1.439.825.97 1.598 1.991 2.346 3.018a48.243 48.243 0 0 1 3.975 6.505l.235.463c.115.224.21.457.285.697.153.464.247.946.279 1.433a6.972 6.972 0 0 1-.348 2.536 12.805 12.805 0 0 1-2.036 3.753 27.05 27.05 0 0 1-5.579 5.364l-1.578-1.813a52.41 52.41 0 0 0 2.206-2.733 23.272 23.272 0 0 0 1.902-2.853 9.91 9.91 0 0 0 1.154-2.802c.082-.353.097-.719.044-1.078a1.386 1.386 0 0 0-.114-.349 1.078 1.078 0 0 0-.082-.139l-.203-.342a66.724 66.724 0 0 0-3.975-5.776 54.006 54.006 0 0 0-2.219-2.707c-.374-.444-.761-.875-1.148-1.306a31.171 31.171 0 0 0-1.141-1.199l3.322-3.531Z"/><path fill="#FFA8A8" d="m226.566 152.533-4.736-.773 2.479 4.146s3.05-.108 3.918-1.902l-1.661-1.471ZM218.331 153.674l2.257 3.367 3.721-1.135-2.479-4.146-3.499 1.914Z"/><path fill="#4263EB" d="M226.338 260.751a1.366 1.366 0 0 1-.906-.247.64.64 0 0 1-.184-.596.364.364 0 0 1 .067-.19.363.363 0 0 1 .155-.127c.551-.248 1.997.678 2.162.786a.104.104 0 0 1 .041.049.104.104 0 0 1 .003.065.098.098 0 0 1-.027.058.098.098 0 0 1-.055.031 5.662 5.662 0 0 1-1.256.171Zm-.634-.983a.463.463 0 0 0-.139 0 .172.172 0 0 0-.069.059.167.167 0 0 0-.026.087.423.423 0 0 0 .114.399c.241.216.862.248 1.693.083a4.173 4.173 0 0 0-1.573-.628Z"/><path fill="#4263EB" d="M227.606 260.574h-.057c-.45-.26-1.319-1.268-1.211-1.82a.425.425 0 0 1 .137-.222.418.418 0 0 1 .243-.095.57.57 0 0 1 .476.153c.52.456.526 1.826.526 1.902a.114.114 0 0 1-.017.054.112.112 0 0 1-.04.041l-.057-.013Zm-.811-1.902h-.051c-.14 0-.171.076-.184.133-.063.324.475 1.097.926 1.458a2.594 2.594 0 0 0-.438-1.496.361.361 0 0 0-.285-.095h.032ZM204.731 260.752a1.748 1.748 0 0 1-1.147-.292.625.625 0 0 1-.209-.545.37.37 0 0 1 .19-.298c.589-.33 2.479.634 2.694.755a.123.123 0 0 1 .057.12.108.108 0 0 1-.088.089 7.94 7.94 0 0 1-1.497.171Zm-.843-.983a.4.4 0 0 0-.209.045.14.14 0 0 0-.056.049.136.136 0 0 0-.02.071.407.407 0 0 0 .127.362c.291.259 1.071.304 2.124.126a6.19 6.19 0 0 0-1.966-.653Z"/><path fill="#4263EB" d="M206.209 260.575h-.051c-.564-.254-1.687-1.268-1.598-1.82 0-.126.114-.285.425-.317a.836.836 0 0 1 .634.197c.596.494.71 1.775.71 1.832a.11.11 0 0 1-.044.102.124.124 0 0 1-.076.006Zm-1.135-1.902h-.07c-.203 0-.216.101-.222.127-.051.323.71 1.128 1.268 1.477a2.635 2.635 0 0 0-.634-1.465.59.59 0 0 0-.342-.139Z"/><path fill="#FFA8A8" d="M213.703 113.676c-.184 2.865-.679 8.686 1.521 10.296 0 0-.399 2.935-5.592 3.62-5.706.742-3.1-2.479-3.1-2.479 3.024-1.154 2.637-3.455 1.813-5.56l5.358-5.877Z"/><path fill="#25262B" d="M201.891 108.611a.223.223 0 0 1-.165-.076 1.79 1.79 0 0 0-1.49-.634.222.222 0 0 1-.213-.357.226.226 0 0 1 .15-.087 2.229 2.229 0 0 1 1.902.799.226.226 0 0 1 .032.241.231.231 0 0 1-.082.096.235.235 0 0 1-.121.037l-.013-.019Z"/><path fill="#FFA8A8" d="M200.902 111.42a10.349 10.349 0 0 1-1.033 2.599 1.626 1.626 0 0 0 1.388.076l-.355-2.675Z"/><path fill="#25262B" d="M201.156 110.722c.05.381-.108.71-.356.748-.247.038-.494-.253-.538-.634-.045-.38.107-.71.355-.742.247-.031.494.222.539.628Z"/><path fill="#25262B" d="m200.731 110.101-.945-.146s.558.653.945.146Z"/><path fill="#FFA8A8" d="M211.433 260.473h-4.755l-.317-11h4.755l.317 11ZM233.02 260.473h-4.755l-1.527-11h4.755l1.527 11Z"/><path fill="#25262B" d="M227.974 259.939h5.338a.377.377 0 0 1 .374.324l.634 4.229a.753.753 0 0 1-.191.592.768.768 0 0 1-.57.251c-1.857-.032-2.758-.14-5.103-.14-1.446 0-3.557.146-5.548.146s-2.098-1.972-1.268-2.149c3.722-.799 4.311-1.902 5.56-2.961.218-.181.491-.283.774-.292ZM206.519 259.939h5.332a.384.384 0 0 1 .381.324l.634 4.229a.77.77 0 0 1-.192.592.768.768 0 0 1-.569.251c-1.858-.032-2.758-.14-5.104-.14-1.445 0-4.438.146-6.429.146-1.99 0-2.098-1.972-1.268-2.149 3.722-.799 5.187-1.902 6.442-2.961.218-.181.49-.283.773-.292Z"/><path fill="#FFA8A8" d="m206.361 249.473.165 5.674h4.755l-.165-5.674h-4.755ZM231.493 249.473h-4.755l.792 5.674h4.749l-.786-5.674ZM213.766 107.741c.323 4.704.558 6.689-1.484 9.396-3.074 4.064-8.92 3.436-10.644-1.078-1.554-4.064-1.82-11.069 2.504-13.529a6.434 6.434 0 0 1 9.624 5.211Z"/><path fill="#25262B" d="M216.505 112.11c2.637 1.471 4.596-2.155 4.596-2.155s-4.729.513-4.304-2.302c.557-3.734-2.118-8.273-8.826-7.69-.374.032-.729.076-1.078.133a3.448 3.448 0 0 0-4.171.964c-1.902.158-4.47 2.428-2.726 5.427.122-.345.312-.662.557-.932.146 1.756 1.681 4.546 3.595 4.729.412 2.403-1.185 5.187-.634 7.697.818 3.62 6.924 4.438 6.924 4.438a2.646 2.646 0 0 1 .355-2.796c4.146 1.902 6.878.045 6.878.045-2.827-1.053-1.971-2.929-1.971-2.929a4.13 4.13 0 0 0 5.382-1.96 4.86 4.86 0 0 1-4.577-2.669Z"/><path fill="#FFA8A8" d="M205.803 111.007a3.418 3.418 0 0 1-.951 2.453c-.837.869-1.864.26-2.143-.849-.247-1.002-.108-2.657.983-3.113a1.544 1.544 0 0 1 2.111 1.509Z"/><path fill="#25262B" d="M209.753 154.836s1.204 31.294 4.07 49.668c2.308 14.848 12.56 49.54 12.56 49.54h6.479s-5.345-33.506-6.518-48.184c-2.967-37.146 4.736-45.121-2.536-52.856l-14.055 1.832Z"/><path fill="#373A40" d="M215.167 164.733s-2.929-.507-4.641 5.072c.634 10.568 1.718 24.593 3.297 34.699.349 2.25.881 4.964 1.534 7.937-1.236-17.853-.19-47.708-.19-47.708Z"/><path fill="#25262B" d="M204.7 155.495s-5.339 34.623-5.028 49.11c.323 15.07 5.845 49.452 5.845 49.452h6.423s-1.015-33.488-.45-48.285c.634-16.136 7.221-52.096 7.221-52.096l-14.011 1.819Z"/><path fill="#4263EB" d="M233.8 254.348h-8.616l-.672-2.891 9.225.063.063 2.828Z"/><path fill="#101113" d="M233.8 254.348h-8.616l-.672-2.891 9.225.063.063 2.828Z" opacity=".2"/><path fill="#4263EB" d="M223.485 123.978c2.479.241 6.245 7.285 6.245 7.285l-6.258 4.799s-5.179-4.545-4.564-7.1c.64-2.657 2.2-5.206 4.577-4.984Z"/><path fill="#101113" d="M223.485 123.978c2.479.241 6.245 7.285 6.245 7.285l-6.258 4.799s-5.179-4.545-4.564-7.1c.64-2.657 2.2-5.206 4.577-4.984Z" opacity=".1"/><path fill="#4263EB" d="M221.615 127.01a6.412 6.412 0 0 0-1.94-.215c-.333.693-.59 1.42-.767 2.168-.634 2.536 4.564 7.101 4.564 7.101l.463-.355-2.32-8.699Z"/><path fill="#101113" d="M221.615 127.01a6.412 6.412 0 0 0-1.94-.215c-.333.693-.59 1.42-.767 2.168-.634 2.536 4.564 7.101 4.564 7.101l.463-.355-2.32-8.699Z" opacity=".3"/><path fill="#FFA8A8" d="M202.576 133.775c-1.807 4.571-3.709 9.218-5.224 13.802-.102.292-.184.571-.273.856l-.216.704a1.177 1.177 0 0 0 0 .634 4.768 4.768 0 0 0 1.643 1.965 26.72 26.72 0 0 0 6.143 3.291l-.571 2.333a21.988 21.988 0 0 1-7.658-2.498 8.205 8.205 0 0 1-3.418-3.462 5.302 5.302 0 0 1-.437-3.018c.014-.125.036-.25.063-.374l.064-.266.108-.482c.076-.323.152-.634.234-.951.634-2.536 1.446-4.945 2.302-7.335.855-2.39 1.749-4.749 2.757-7.101l4.483 1.902Z"/><path fill="#4263EB" d="M198.727 127.359s-2.143 1.084 5.973 28.137l19.134-2.498c-1.344-7.748-1.978-12.547-.349-29.019a57.838 57.838 0 0 0-8.242 0 60.56 60.56 0 0 0-8.692 1.142c-3.671.817-7.824 2.238-7.824 2.238Z"/><path fill="#101113" d="M198.727 127.359s-2.143 1.084 5.973 28.137l19.134-2.498c-1.344-7.748-1.978-12.547-.349-29.019a57.838 57.838 0 0 0-8.242 0 60.56 60.56 0 0 0-8.692 1.142c-3.671.817-7.824 2.238-7.824 2.238Z" opacity=".1"/><path fill="#4263EB" d="m223.973 151.837 1.097 1.592c.083.126-.057.279-.273.31l-20.066 2.625c-.171 0-.329-.044-.355-.152l-.393-1.693c-.031-.114.108-.235.298-.26l19.375-2.536a.35.35 0 0 1 .317.114Z"/><path fill="#101113" d="m223.973 151.837 1.097 1.592c.083.126-.057.279-.273.31l-20.066 2.625c-.171 0-.329-.044-.355-.152l-.393-1.693c-.031-.114.108-.235.298-.26l19.375-2.536a.35.35 0 0 1 .317.114Z" opacity=".2"/><path fill="#25262B" d="m221.653 154.341.52-.069c.101 0 .171-.076.158-.14l-.532-2.193a.182.182 0 0 0-.092-.083.177.177 0 0 0-.124-.006l-.52.063c-.108 0-.177.076-.158.146l.532 2.187c.013.07.114.108.216.095ZM209.074 155.964l.52-.07c.102 0 .178-.076.159-.139l-.533-2.194a.195.195 0 0 0-.215-.095l-.52.07c-.102 0-.178.076-.159.139l.533 2.194c.012.095.114.133.215.095Z"/><path fill="#4263EB" d="M199.621 136.538c.527 2.447 1.268 5.548 2.352 9.472l.235-9.948-2.587.476Z"/><path fill="#101113" d="M199.621 136.538c.527 2.447 1.268 5.548 2.352 9.472l.235-9.948-2.587.476Z" opacity=".3"/><path fill="#4263EB" d="M198.727 127.359c-2.377.957-4.438 9.091-4.438 9.091l8.179 3.982s3.95-9.948 2.181-11.888c-1.769-1.94-3.183-2.282-5.922-1.185Z"/><path fill="#101113" d="M198.727 127.359c-2.377.957-4.438 9.091-4.438 9.091l8.179 3.982s3.95-9.948 2.181-11.888c-1.769-1.94-3.183-2.282-5.922-1.185Z" opacity=".1"/><path fill="#4263EB" d="M213.037 254.348h-8.616l-.672-2.891 9.592.063-.304 2.828Z"/><path fill="#101113" d="M213.037 254.348h-8.616l-.672-2.891 9.592.063-.304 2.828Z" opacity=".2"/><path fill="#FFA8A8" d="m204.782 154.239-.691-.285a1.037 1.037 0 0 0-1.42 1.115l.501 3.304a1.12 1.12 0 0 0 .535.804 1.133 1.133 0 0 0 .961.096c.251-.092.487-.222.697-.387a1.898 1.898 0 0 0 .685-1.572l-.07-1.37a1.898 1.898 0 0 0-1.198-1.705Z"/></svg>