<svg xmlns="http://www.w3.org/2000/svg" xmlns:xlink="http://www.w3.org/1999/xlink" fill="none" viewBox="0 0 252 211"><defs><path id="reuse-0" fill="#fff" d="m13.598 210.629 237.611-21.388-13.595-132.47L.003 78.157l13.595 132.471Z"/></defs><use xlink:href="#reuse-0"/><use xlink:href="#reuse-0" opacity=".1"/><path fill="#fff" d="M126.224 139.719 0 78.155l237.607-21.392-111.383 82.956Z" opacity=".1"/><path fill="#fff" d="M97.467 5.57 0 78.157l237.607-21.393L127.161 2.902C122.465.61 117.162-.356 111.892.117c-5.27.474-10.281 2.368-14.425 5.454Z"/><path fill="#fff" d="M225.214 57.885c1.008-.091 1.259-1.451.349-1.895L123.849 6.38a21.845 21.845 0 0 0-11.516-2.102c-3.974.357-7.753 1.786-10.879 4.113l-89.79 66.847c-.81.603-.318 1.888.687 1.798l106.454-9.578 106.409-9.573Z"/><path fill="#fff" stroke="#DBE4FF" d="m144.953 125.982.257-.428-.257.428 104.684 62.901-234.577 21.11 89.97-80.425c5.257-4.697 12.052-7.608 19.296-8.259 7.243-.651 14.508.996 20.627 4.673Z"/><path fill="#EDF2FF" d="m184.905 55.933 32.157 8.045.773 7.512-91.604 68.229-103.809-50.63-1.547-15.025 164.03-18.131Z"/><path fill="#DBE4FF" d="m184.904 55.933 6.077 15.767 26.08-7.722"/><path fill="#DBE4FF" d="m184.904 55.933 3.125 13.003 29.032-4.958"/></svg>