<svg xmlns="http://www.w3.org/2000/svg" fill="none" viewBox="0 0 34 34"><rect width="34" height="34" fill="#EDF2FF" rx="8"/><path stroke="#4263EB" stroke-linecap="square" d="m19.506 11.5-1.477 1.477M15.937 9l-.359 3m-6.744 2.54 2.955.46m-.776 4.055.567-.566.998-.989m-2.289-7.413 1.125 1.125.77.712.394.394"/><g clip-path="url(#a)"><path fill="#101113" d="m25.149 17.916-10.306-3.89a.405.405 0 0 0-.433.095.417.417 0 0 0-.096.437l3.86 10.455a.414.414 0 0 0 .396.27.407.407 0 0 0 .38-.29l1.104-3.636 3.741 3.698a.407.407 0 0 0 .578 0l.965-.977a.418.418 0 0 0 0-.586l-3.73-3.681 3.54-1.11a.41.41 0 0 0 .277-.392.42.42 0 0 0-.276-.393Z"/></g><defs><clipPath id="a"><path fill="#fff" d="M12.692 12.74h14.77v14.959h-14.77z"/></clipPath></defs></svg>