<?xml version="1.0" standalone="no"?>
<!DOCTYPE svg PUBLIC "-//W3C//DTD SVG 20010904//EN"
 "http://www.w3.org/TR/2001/REC-SVG-20010904/DTD/svg10.dtd">
<svg version="1.0" xmlns="http://www.w3.org/2000/svg"
 width="700.000000pt" height="700.000000pt" viewBox="0 0 700.000000 700.000000"
 preserveAspectRatio="xMidYMid meet">
<metadata>
Created by potrace 1.14, written by Peter Selinger 2001-2017
</metadata>
<g transform="translate(0.000000,700.000000) scale(0.100000,-0.100000)"
fill="#000000" stroke="none">
<path d="M1475 6993 c-108 -14 -263 -50 -360 -82 -108 -37 -271 -113 -327
-152 -14 -11 -31 -19 -36 -19 -6 0 -12 -3 -14 -8 -1 -4 -34 -30 -73 -57 -136
-95 -309 -281 -410 -440 -109 -172 -209 -431 -231 -600 -3 -27 -10 -72 -14
-100 -12 -70 -11 -3994 1 -4075 23 -165 33 -209 69 -317 39 -117 52 -150 100
-245 225 -443 657 -771 1140 -865 166 -32 154 -31 2170 -32 2063 0 2035 0
2226 39 351 72 721 309 948 609 145 189 270 467 302 666 3 22 8 43 10 46 1 3
7 34 11 70 10 79 11 4056 1 4119 -4 25 -10 66 -14 90 -3 25 -17 87 -31 139
-147 564 -598 1015 -1166 1165 -208 56 -140 54 -2287 53 -1092 0 -1998 -2
-2015 -4z"/>
</g>
</svg>
